# xmcd
#
# Track frame offsets: 
#        150
#        21563
#        40238
#        57646
#        74293
#        92048
#        109109
#        129197
#        149720
#        172878
#        190320
#        214236
#        241653
#        258348
#        274248
#        290289
#        309473
#
# Disc length: 4403 seconds
#
# Revision: 0
# Processed by: cddbd v1.5.2PL0 Copyright (c) Steve Scherf et al.
# Submitted via: ExactAudioCopyFreeDBPlugin 1.0
#
DISCID=03113111
DTITLE=Trey Songz - Trigga (Deluxe Edition)
DYEAR=2014
DGENRE=R&B
TTITLE0=Cake
TTITLE1=Foreign
TTITLE2=Na Na
TTITLE3=Touchin, Lovin (feat. Nicki Minaj)
TTITLE4=Disrespectful (feat. Mila J)
TTITLE5=Dead Wrong (feat. Ty Dolla $ign)
TTITLE6=All We Do
TTITLE7=Foreign Remix (feat. Justin Bieber)
TTITLE8=Late Night (feat. Juicy J)
TTITLE9=SmartPhones
TTITLE10=Yes, No, Maybe
TTITLE11=Y.A.S.
TTITLE12=Change Your Mind
TTITLE13=What's Best For You (Tremaine Bonus Track)
TTITLE14=Love Around The World (Tremaine Bonus Track)
TTITLE15=I Know (Can't Get Back) (Tremaine Bonus Track)
TTITLE16=Mr. Steal Your Girl (Tremaine Bonus Track)
EXTD=
EXTT0=
EXTT1=
EXTT2=
EXTT3=
EXTT4=
EXTT5=
EXTT6=
EXTT7=
EXTT8=
EXTT9=
EXTT10=
EXTT11=
EXTT12=
EXTT13=
EXTT14=
EXTT15=
EXTT16=
PLAYORDER=
